<?xml version="1.0" encoding="utf-8"?>
<!-- Generator: Adobe Illustrator 12.0.0, SVG Export Plug-In . SVG Version: 6.00 Build 51448)  -->
<!DOCTYPE svg PUBLIC "-//W3C//DTD SVG 1.1//EN" "http://www.w3.org/Graphics/SVG/1.1/DTD/svg11.dtd" [
	<!ENTITY ns_svg "http://www.w3.org/2000/svg">
	<!ENTITY ns_xlink "http://www.w3.org/1999/xlink">
]>
<svg  version="1.1" id="Layer_1" xmlns="&ns_svg;" xmlns:xlink="&ns_xlink;" width="374.417" height="139.01"
	 viewBox="0 0 374.417 139.01" overflow="visible" enable-background="new 0 0 374.417 139.01" xml:space="preserve">
<circle fill="#E2E2E2" cx="113.74" cy="10.335" r="10"/>
<circle fill="#E2E2E2" cx="139.073" cy="10" r="10"/>
<g>
	<g>
		<path fill="none" d="M125.88,29.906c-55.286,0-55.476,85.04-0.353,85.04C180.567,114.946,181.381,29.906,125.88,29.906"/>
		<path fill="#808284" d="M126.305,25.425c-15.84,0.16-30.393,6.694-39.03,20.339c-7.587,11.984-9.33,27.428-5.523,40.986
			c4.001,14.255,14.291,25.775,28.472,30.41c15.272,4.992,33.325,2.09,45.615-8.387c14.198-12.103,18.788-33.119,13.913-50.673
			C164.204,38.125,146.863,25.631,126.305,25.425c-5.77-0.058-6.648,8.904-0.85,8.963c15.276,0.152,28.121,7.46,34.172,21.753
			c5.178,12.23,3.747,27.329-3.347,38.482c-8.495,13.355-24.488,17.727-39.481,14.994c-14.044-2.559-23.966-14.123-26.994-27.644
			c-2.4-10.719-0.606-22.44,5.284-31.744c6.624-10.463,18.202-15.72,30.367-15.842C131.208,34.329,132.098,25.367,126.305,25.425
			L126.305,25.425z"/>
	</g>
</g>
<g>
	<g>
		<path fill="none" d="M177.858,29.906c48.716,110.469,51.349,116.266,104.041,0"/>
		<path fill="#808284" d="M173.792,31.838c9.585,21.736,18.655,43.998,30.381,64.701c4.984,8.801,12.316,21.996,23.789,22.874
			c11.572,0.885,19.75-12.241,24.942-20.62c12.796-20.646,22.38-43.457,32.396-65.518c0.273-0.603,0.547-1.205,0.818-1.807
			c2.404-5.303-6.062-8.374-8.441-3.124c-9.432,20.802-18.584,41.971-30.039,61.767c-3.163,5.467-6.576,11.122-10.98,15.697
			c-1.273,1.323-3.094,2.868-4.3,3.56c-1.636,0.938-2.769,1.107-3.546,1.082c-2.686-0.086-5.469-2.419-7.956-5.212
			c-4.272-4.798-7.474-10.519-10.53-16.128c-10.744-19.703-19.355-40.625-28.402-61.136
			C179.583,22.666,171.451,26.527,173.792,31.838L173.792,31.838z"/>
	</g>
</g>
<g>
	<g>
		<path fill="none" d="M332.419,87.255c57.148-12.938,36.66-53.914,3.234-57.147c-33.428-3.234-51.757,33.427-40.975,59.305
			c10.781,25.88,32.35,26.957,51.756,24.802"/>
		<path fill="#808284" d="M333.201,91.687c16.131-3.774,36.906-11.746,39.459-30.611c1.91-14.123-9.756-25.763-21.414-31.372
			c-16.834-8.1-37.594-4.497-50.472,8.996c-13.171,13.801-17.218,34.975-10.159,52.645c4.553,11.395,13.129,20.563,24.609,25.009
			c10.094,3.907,21.438,3.427,31.992,2.293c5.777-0.62,4.176-9.479-1.563-8.863c-9.543,1.025-19.289,1.232-28.375-2.285
			c-10.154-3.931-17.156-13.935-19.939-24.171c-4.971-18.277,4.521-39.374,22.113-46.712c13.695-5.712,33.301-0.556,41.371,12.312
			c9.061,14.443-4.934,25.428-17.42,30.402c-3.811,1.52-7.779,2.563-11.768,3.496C326.009,84.14,327.542,93.011,333.201,91.687
			L333.201,91.687z"/>
	</g>
</g>
<g>
	<g>
		<path fill="none" d="M10.283,29.224c-19.854,55.689,12.757,96.622,61.591,83.696"/>
		<path fill="#808284" d="M6.062,27.662c-8.228,23.579-9.673,51.072,5.826,72.053c14.042,19.009,39,23.201,60.767,17.639
			c5.586-1.429,4.065-10.302-1.563-8.863c-19.247,4.92-39.642,1.822-52.34-14.598C4.98,76.082,7.558,50.691,14.504,30.786
			C16.418,25.3,7.974,22.183,6.062,27.662L6.062,27.662z"/>
	</g>
</g>
<g enable-background="new    ">
	<path fill="#808284" d="M363.982,100.522c5.074,0,9.116,4.125,9.116,9.281c0,5.238-4.042,9.322-9.157,9.322
		c-5.074,0-9.199-4.084-9.199-9.322c0-5.156,4.125-9.281,9.199-9.281H363.982z M363.941,101.966c-4.084,0-7.426,3.507-7.426,7.838
		c0,4.414,3.342,7.879,7.467,7.879c4.125,0.041,7.425-3.465,7.425-7.838c0-4.372-3.3-7.879-7.425-7.879H363.941z M362.208,115.207
		h-1.65v-10.354c0.866-0.124,1.691-0.247,2.929-0.247c1.567,0,2.599,0.33,3.218,0.783c0.618,0.454,0.948,1.155,0.948,2.146
		c0,1.361-0.907,2.186-2.021,2.516v0.083c0.906,0.165,1.525,0.99,1.732,2.517c0.247,1.608,0.494,2.228,0.66,2.557h-1.733
		c-0.247-0.329-0.495-1.278-0.701-2.64c-0.247-1.32-0.907-1.815-2.228-1.815h-1.154V115.207z M362.208,109.473h1.195
		c1.361,0,2.517-0.495,2.517-1.773c0-0.908-0.66-1.815-2.517-1.815c-0.536,0-0.907,0.041-1.195,0.083V109.473z"/>
</g>
</svg>
