<?xml version="1.0" encoding="utf-8"?>
<!-- Generator: Adobe Illustrator 12.0.0, SVG Export Plug-In . SVG Version: 6.00 Build 51448)  -->
<!DOCTYPE svg PUBLIC "-//W3C//DTD SVG 1.1//EN" "http://www.w3.org/Graphics/SVG/1.1/DTD/svg11.dtd" [
	<!ENTITY ns_svg "http://www.w3.org/2000/svg">
	<!ENTITY ns_xlink "http://www.w3.org/1999/xlink">
]>
<svg  version="1.1" id="Layer_1" xmlns="&ns_svg;" xmlns:xlink="&ns_xlink;" width="998.197" height="855.876"
	 viewBox="0 0 998.197 855.876" overflow="visible" enable-background="new 0 0 998.197 855.876" xml:space="preserve">
<circle fill="#ED1C24" cx="212.599" cy="420.199" r="212.599"/>
<path fill="#F7931D" d="M403.938,420.199c0,105.662-85.664,191.339-191.339,191.339S21.26,525.861,21.26,420.199
	S106.924,228.86,212.599,228.86S403.938,314.537,403.938,420.199z"/>
<path fill="#FFF200" d="M389.765,420.199c0,97.841-79.319,177.165-177.166,177.165c-97.848,0-177.165-79.324-177.165-177.165
	s79.317-177.165,177.165-177.165C310.445,243.034,389.765,322.358,389.765,420.199z"/>
<circle fill="#28903A" cx="212.599" cy="420.199" r="162.992"/>
<circle fill="#0071BC" cx="212.598" cy="420.199" r="148.819"/>
<circle fill="#91278F" cx="212.598" cy="420.199" r="134.646"/>
<circle fill="#FFFFFF" cx="212.599" cy="420.199" r="113.386"/>
<path fill="#ED1C24" d="M573,414.199c0-117.415,95.185-212.599,212.599-212.599s212.599,95.184,212.599,212.599"/>
<path fill="#F7931D" d="M594.26,414.199c0-105.662,85.664-191.339,191.339-191.339s191.339,85.677,191.339,191.339"/>
<path fill="#FFF200" d="M608.434,414.199c0-97.841,79.317-177.165,177.165-177.165c97.847,0,177.166,79.324,177.166,177.165"/>
<path fill="#28903A" d="M622.607,414.199c0-90.016,72.973-162.992,162.991-162.992s162.992,72.977,162.992,162.992"/>
<path fill="#0071BC" d="M636.779,414.199c0-82.188,66.627-148.819,148.819-148.819c82.189,0,148.818,66.631,148.818,148.819"/>
<path fill="#91278F" d="M650.952,414.199c0-74.36,60.283-134.646,134.646-134.646c74.361,0,134.646,60.285,134.646,134.646"/>
<path fill="#FFFFFF" d="M672.213,415.199c0-62.619,50.766-113.386,113.387-113.386c62.619,0,113.386,50.767,113.386,113.386"/>
<circle fill="#E2E2E2" cx="704.362" cy="10.335" r="10"/>
<circle fill="#E2E2E2" cx="206.703" cy="798.982" r="10"/>
<circle fill="#E2E2E2" cx="729.695" cy="10" r="10"/>
<path fill="#ED1C24" d="M573,414.199c0-117.415,95.185-212.599,212.599-212.599s212.599,95.184,212.599,212.599"/>
<path fill="#F7931D" d="M594.26,414.199c0-105.662,85.664-191.339,191.339-191.339s191.339,85.677,191.339,191.339"/>
<path fill="#FFF200" d="M608.434,414.199c0-97.841,79.317-177.165,177.165-177.165c97.847,0,177.166,79.324,177.166,177.165"/>
<path fill="#28903A" d="M622.607,414.199c0-90.016,72.973-162.992,162.991-162.992s162.992,72.977,162.992,162.992"/>
<path fill="#0071BC" d="M636.779,414.199c0-82.188,66.627-148.819,148.819-148.819c82.189,0,148.818,66.631,148.818,148.819"/>
<path fill="#91278F" d="M650.952,414.199c0-74.36,60.283-134.646,134.646-134.646c74.361,0,134.646,60.285,134.646,134.646"/>
<path fill="#FFFFFF" d="M672.213,415.199c0-62.619,50.766-113.386,113.387-113.386c62.619,0,113.386,50.767,113.386,113.386"/>
<path fill="#ED1C24" d="M573,414.199c0-117.415,95.185-212.599,212.599-212.599s212.599,95.184,212.599,212.599"/>
<path fill="#F7931D" d="M594.26,414.199c0-105.662,85.664-191.339,191.339-191.339s191.339,85.677,191.339,191.339"/>
<path fill="#FFF200" d="M608.434,414.199c0-97.841,79.317-177.165,177.165-177.165c97.847,0,177.166,79.324,177.166,177.165"/>
<path fill="#28903A" d="M622.607,414.199c0-90.016,72.973-162.992,162.991-162.992s162.992,72.977,162.992,162.992"/>
<path fill="#0071BC" d="M636.779,414.199c0-82.188,66.627-148.819,148.819-148.819c82.189,0,148.818,66.631,148.818,148.819"/>
<path fill="#91278F" d="M650.952,414.199c0-74.36,60.283-134.646,134.646-134.646c74.361,0,134.646,60.285,134.646,134.646"/>
<path fill="#FFFFFF" d="M672.213,415.199c0-62.619,50.766-113.386,113.387-113.386c62.619,0,113.386,50.767,113.386,113.386"/>
<path fill="#ED1C24" d="M573,414.199c0-117.415,95.185-212.599,212.599-212.599s212.599,95.184,212.599,212.599"/>
<path fill="#F7931D" d="M594.26,414.199c0-105.662,85.664-191.339,191.339-191.339s191.339,85.677,191.339,191.339"/>
<path fill="#FFF200" d="M608.434,414.199c0-97.841,79.317-177.165,177.165-177.165c97.847,0,177.166,79.324,177.166,177.165"/>
<path fill="#28903A" d="M622.607,414.199c0-90.016,72.973-162.992,162.991-162.992s162.992,72.977,162.992,162.992"/>
<path fill="#0071BC" d="M636.779,414.199c0-82.188,66.627-148.819,148.819-148.819c82.189,0,148.818,66.631,148.818,148.819"/>
<path fill="#91278F" d="M650.952,414.199c0-74.36,60.283-134.646,134.646-134.646c74.361,0,134.646,60.285,134.646,134.646"/>
<path fill="#FFFFFF" d="M672.213,415.199c0-62.619,50.766-113.386,113.387-113.386c62.619,0,113.386,50.767,113.386,113.386"/>
<g>
	<g>
		<path fill="none" d="M716.503,29.906c-55.286,0-55.476,85.04-0.353,85.04C771.189,114.946,772.004,29.906,716.503,29.906"/>
		<path fill="#808284" d="M716.928,25.425c-15.84,0.16-30.393,6.694-39.03,20.338c-7.587,11.985-9.329,27.428-5.523,40.987
			c4.001,14.255,14.291,25.776,28.472,30.411c15.271,4.991,33.324,2.089,45.615-8.387c14.197-12.102,18.788-33.12,13.913-50.673
			C754.826,38.125,737.485,25.631,716.928,25.425c-5.77-0.058-6.648,8.904-0.85,8.962c15.276,0.153,28.121,7.46,34.172,21.753
			c5.178,12.231,3.747,27.329-3.348,38.483c-8.494,13.355-24.487,17.726-39.48,14.994c-14.045-2.559-23.967-14.123-26.995-27.644
			c-2.399-10.718-0.605-22.44,5.284-31.744c6.624-10.463,18.202-15.72,30.367-15.842C721.831,34.329,722.721,25.367,716.928,25.425
			L716.928,25.425z"/>
	</g>
</g>
<g>
	<g>
		<path fill="none" d="M768.48,29.906c48.716,110.469,51.349,116.266,104.041,0"/>
		<path fill="#808284" d="M764.415,31.838c9.586,21.736,18.655,43.999,30.382,64.701c4.984,8.8,12.315,21.996,23.788,22.874
			c11.572,0.885,19.75-12.24,24.943-20.619c12.796-20.646,22.38-43.458,32.395-65.519c0.273-0.602,0.547-1.205,0.819-1.807
			c2.404-5.302-6.062-8.374-8.441-3.124c-9.433,20.802-18.585,41.971-30.04,61.767c-3.163,5.467-6.576,11.123-10.98,15.698
			c-1.274,1.324-3.094,2.868-4.3,3.56c-1.636,0.938-2.768,1.107-3.546,1.083c-2.686-0.086-5.469-2.419-7.956-5.213
			c-4.272-4.797-7.473-10.518-10.531-16.127c-10.743-19.703-19.355-40.625-28.401-61.136
			C770.205,22.666,762.073,26.527,764.415,31.838L764.415,31.838z"/>
	</g>
</g>
<g>
	<g>
		<path fill="none" d="M923.042,87.255c57.148-12.938,36.661-53.914,3.234-57.148s-51.756,33.427-40.974,59.305
			c10.782,25.88,32.349,26.957,51.756,24.802"/>
		<path fill="#808284" d="M923.823,91.687c16.131-3.774,36.905-11.747,39.458-30.611c1.91-14.123-9.756-25.763-21.413-31.372
			c-16.835-8.1-37.595-4.497-50.472,8.996c-13.171,13.801-17.218,34.975-10.159,52.644c4.553,11.395,13.128,20.564,24.609,25.009
			c10.093,3.907,21.437,3.427,31.993,2.293c5.776-0.621,4.176-9.479-1.563-8.863c-9.543,1.025-19.289,1.232-28.375-2.285
			c-10.155-3.932-17.156-13.935-19.94-24.171c-4.971-18.277,4.522-39.374,22.114-46.712c13.694-5.712,33.301-0.556,41.371,12.311
			c9.06,14.444-4.933,25.428-17.42,30.404c-3.81,1.518-7.78,2.563-11.767,3.496C916.633,84.14,918.166,93.01,923.823,91.687
			L923.823,91.687z"/>
	</g>
</g>
<g>
	<g>
		<path fill="none" d="M600.905,29.224c-19.854,55.69,12.757,96.622,61.591,83.697"/>
		<path fill="#808284" d="M596.685,27.662c-8.229,23.579-9.674,51.072,5.826,72.053c14.042,19.009,38.999,23.202,60.767,17.638
			c5.587-1.428,4.064-10.302-1.563-8.863c-19.247,4.919-39.643,1.823-52.34-14.598c-13.772-17.81-11.194-43.201-4.249-63.106
			C607.04,25.3,598.597,22.183,596.685,27.662L596.685,27.662z"/>
	</g>
</g>
<text transform="matrix(1 0 0 1 944.0029 128.6963)" fill="#808284" font-family="'Myriad-Roman'" font-size="41.25">®</text>
<g>
	<g>
		<line fill="none" x1="207.069" y1="683.901" x2="207.069" y2="776.967"/>
		<path fill="#808284" d="M202.069,683.901c0,31.021,0,62.044,0,93.065c0,6.448,10,6.448,10,0c0-31.021,0-62.044,0-93.065
			C212.069,677.453,202.069,677.453,202.069,683.901L202.069,683.901z"/>
	</g>
</g>
<g>
	<g>
		<line fill="none" x1="207.313" y1="777.231" x2="245.318" y2="739.227"/>
		<path fill="#808284" d="M210.848,780.767c12.668-12.668,25.337-25.336,38.006-38.005c4.563-4.563-2.507-11.635-7.071-7.07
			c-12.668,12.668-25.337,25.336-38.006,38.005C199.213,778.26,206.284,785.331,210.848,780.767L210.848,780.767z"/>
	</g>
</g>
<g>
	<g>
		<line fill="none" x1="168.821" y1="738.849" x2="206.827" y2="776.854"/>
		<path fill="#808284" d="M165.286,742.384c12.669,12.669,25.337,25.338,38.006,38.006c4.564,4.564,11.635-2.507,7.071-7.07
			c-12.669-12.669-25.337-25.338-38.006-38.006C167.793,730.749,160.722,737.82,165.286,742.384L165.286,742.384z"/>
	</g>
</g>
<path fill="#FEE900" d="M925.664,683.22c0,78.275-63.459,141.732-141.732,141.732c-78.274,0-141.731-63.457-141.731-141.732
	s63.457-141.73,141.731-141.73C862.205,541.489,925.664,604.944,925.664,683.22z"/>
<path fill="#F6EB13" d="M812.231,532.688c-6.599-10.07-15.599-23.07-29.599-22.07c-9,1.5-16.313,7.5-21.938,14.625
	c-1.875,2.375-3.563,4.875-5.063,7.375c17,0,35,0,52.398,0.109C810.656,532.702,812.231,532.688,812.231,532.688z"/>
<path fill="#F6EB13" d="M755.633,833.753c6.599,10.068,15.599,23.068,29.599,22.068c9-1.5,16.313-7.5,21.938-14.625
	c1.875-2.375,3.563-4.875,5.063-7.375c-17,0-35,0-52.398-0.107C757.208,833.739,755.633,833.753,755.633,833.753z"/>
<path fill="#F6EB13" d="M633.4,654.921c-10.07,6.6-23.07,15.6-22.07,29.6c1.5,9,7.5,16.313,14.625,21.938
	c2.375,1.875,4.875,3.563,7.375,5.063c0-17,0-35,0.109-52.398C633.414,656.497,633.4,654.921,633.4,654.921z"/>
<path fill="#F6EB13" d="M934.465,711.519c10.068-6.598,23.068-15.598,22.068-29.598c-1.5-9-7.5-16.313-14.625-21.938
	c-2.375-1.875-4.875-3.563-7.375-5.063c0,17,0,35-0.107,52.398C934.451,709.944,934.465,711.519,934.465,711.519z"/>
<path fill="#F6EB13" d="M697.5,556.767c-11.786-2.453-27.342-5.283-36.534,5.324c-5.304,7.424-6.231,16.838-5.171,25.854
	c0.354,3.006,0.928,5.967,1.635,8.795c12.021-12.021,24.749-24.748,37.128-36.975C696.396,557.89,697.5,556.767,697.5,556.767z"/>
<path fill="#F6EB13" d="M870.363,809.673c11.786,2.455,27.343,5.283,36.535-5.324c5.303-7.424,6.231-16.838,5.171-25.854
	c-0.354-3.006-0.929-5.967-1.636-8.795c-12.021,12.021-24.748,24.75-37.127,36.975C871.468,808.55,870.363,809.673,870.363,809.673z
	"/>
<path fill="#F6EB13" d="M657.479,769.651c-2.455,11.787-5.283,27.344,5.323,36.535c7.425,5.305,16.838,6.232,25.854,5.172
	c3.006-0.354,5.967-0.928,8.795-1.637c-12.021-12.02-24.749-24.748-36.974-37.127C658.604,770.755,657.479,769.651,657.479,769.651z
	"/>
<path fill="#F6EB13" d="M910.385,596.788c2.453-11.785,5.282-27.342-5.324-36.535c-7.425-5.303-16.838-6.23-25.854-5.17
	c-3.006,0.354-5.967,0.928-8.795,1.635c12.021,12.021,24.748,24.748,36.976,37.127C909.262,595.683,910.385,596.788,910.385,596.788
	z"/>
<path fill="#F6EB13" d="M752.078,533.399c-9.968-6.752-23.28-15.283-35.815-8.969c-7.728,4.852-12.166,13.205-14.613,21.945
	c-0.815,2.914-1.41,5.871-1.832,8.756c15.689-6.547,32.301-13.479,48.399-20.078C750.629,534.019,752.078,533.399,752.078,533.399z"
	/>
<path fill="#F6EB13" d="M815.787,833.04c9.967,6.752,23.279,15.283,35.814,8.969c7.729-4.85,12.166-13.203,14.613-21.945
	c0.815-2.914,1.41-5.871,1.832-8.756c-15.689,6.547-32.301,13.479-48.399,20.078C817.235,832.421,815.787,833.04,815.787,833.04z"/>
<path fill="#F6EB13" d="M634.112,715.075c-6.752,9.967-15.283,23.279-8.969,35.814c4.85,7.729,13.203,12.166,21.945,14.613
	c2.913,0.816,5.87,1.41,8.755,1.832c-6.547-15.689-13.479-32.301-20.078-48.398C634.731,716.522,634.112,715.075,634.112,715.075z"
	/>
<path fill="#F6EB13" d="M933.753,651.364c6.75-9.967,15.282-23.279,8.968-35.814c-4.851-7.727-13.204-12.166-21.945-14.613
	c-2.914-0.814-5.871-1.41-8.756-1.832c6.547,15.689,13.479,32.301,20.08,48.398C933.133,649.917,933.753,651.364,933.753,651.364z"
	/>
<path fill="#F6EB13" d="M655.469,599.806c-11.822,2.273-27.268,5.654-31.666,18.982c-2.036,8.895,0.733,17.939,5.184,25.852
	c1.483,2.637,3.154,5.148,4.896,7.486c6.465-15.723,13.31-32.371,20.025-48.422C654.883,601.267,655.469,599.806,655.469,599.806z"
	/>
<path fill="#F6EB13" d="M912.395,766.634c11.822-2.273,27.269-5.654,31.668-18.982c2.033-8.895-0.734-17.939-5.185-25.852
	c-1.484-2.637-3.155-5.148-4.897-7.486c-6.464,15.723-13.308,32.371-20.023,48.422C912.981,765.173,912.395,766.634,912.395,766.634
	z"/>
<path fill="#F6EB13" d="M700.518,811.683c2.273,11.822,5.654,27.27,18.983,31.668c8.895,2.035,17.938-0.734,25.851-5.184
	c2.638-1.484,5.149-3.154,7.486-4.896c-15.723-6.465-32.371-13.309-48.42-20.027C701.98,812.269,700.518,811.683,700.518,811.683z"
	/>
<path fill="#F6EB13" d="M867.346,554.757c-2.274-11.822-5.654-27.268-18.983-31.666c-8.895-2.037-17.938,0.732-25.851,5.184
	c-2.638,1.484-5.148,3.154-7.486,4.896c15.723,6.465,32.37,13.309,48.422,20.023C865.884,554.169,867.346,554.757,867.346,554.757z"
	/>
<g>
	<g>
		<path fill="none" d="M673.178,661.95c28.136-28.137,51.38-44.04,95.419,0"/>
		<path fill="#FFFFFF" d="M676.089,665.383c10.797-10.766,23.004-23.204,38.672-25.928c19.558-3.4,37.708,12.831,50.403,25.406
			c4.088,4.049,10.999-1.728,6.865-5.822c-15.164-15.021-34.19-30.839-56.938-28.701c-18.037,1.694-32.69,16.08-44.825,28.18
			C666.189,662.584,671.968,669.491,676.089,665.383L676.089,665.383z"/>
	</g>
</g>
<g>
	<g>
		<path fill="none" d="M800.404,659.503c28.137-28.137,51.379-44.04,95.42,0"/>
		<path fill="#FFFFFF" d="M803.315,662.936c10.797-10.766,23.004-23.204,38.672-25.928c19.558-3.4,37.709,12.831,50.404,25.406
			c4.088,4.049,10.999-1.728,6.865-5.822c-15.164-15.021-34.19-30.839-56.938-28.701c-18.037,1.694-32.69,16.08-44.825,28.18
			C793.416,660.136,799.194,667.044,803.315,662.936L803.315,662.936z"/>
	</g>
</g>
</svg>
